<?xml version="1.0" encoding="UTF-8"?><svg xmlns="http://www.w3.org/2000/svg" width="100%" height="100%" viewBox="325 290 590 303">
<g data-color-group="#0f3650" id="dark-cyan"><path id="38" d="M 427,551 C 422.625,548.777 420.851,547.525 420.235,546.783 C 418.484,544.673 420.216,538.923 428.449,519.522 C 432.554,509.849 435.674,501.316 435.384,500.559 C 434.668,498.693 429.124,496.472 428.011,497.606 C 427.528,498.098 423.446,505.475 418.939,514 C 406.996,536.591 405.598,538.342 400.122,537.564 C 396.275,537.018 380.722,529.575 378.939,527.427 C 377.991,526.285 380.557,520.847 391.975,499.800 C 399.794,485.387 406.429,472.136 406.718,470.352 C 407.152,467.675 405.979,464.798 400.001,453.865 C 396.018,446.581 392.541,439.002 392.276,437.024 C 391.598,431.970 393.381,428.320 405.386,410.173 C 413.947,397.232 416.610,393.933 419.702,392.443 C 423.291,390.713 423.783,390.703 428.624,392.257 C 434.116,394.020 463.324,409.620 468.812,413.721 C 470.634,415.082 472.560,417.342 473.092,418.741 C 474.449,422.310 471.778,430.956 468.103,434.890 C 465.603,437.566 464.502,438 460.209,438 C 456.051,438 453.079,436.915 442.360,431.486 C 438.073,429.315 433.787,427.143 429.500,424.972 C 428.702,426.601 427.904,428.229 427.106,429.858 C 426.308,431.487 425.510,433.115 424.712,434.744 C 426.510,435.332 428.308,435.921 430.106,436.509 C 438.451,439.240 442.649,441.672 445.527,445.446 C 449.608,450.796 453.140,462.231 453.879,472.480 C 454.096,475.487 454.312,478.493 454.529,481.500 C 455.191,479.833 455.853,478.167 456.515,476.500 C 459.588,468.761 459.280,457.165 455.805,449.750 C 454.907,447.833 454.009,445.917 453.111,444 C 455.234,444 457.356,444 459.479,444 C 464.899,444 466.313,443.608 468.978,441.365 C 470.022,440.487 471.065,439.608 472.109,438.730 C 473.007,439.589 473.907,440.449 474.805,441.308 C 477.712,444.087 486.023,446.462 489.653,445.551 C 491.386,445.116 492.456,445.814 494.579,448.768 C 498.291,453.932 500.999,455.784 507.132,457.354 C 508.878,457.801 510.623,458.248 512.369,458.695 C 511.436,460.287 510.502,461.880 509.569,463.472 C 503.696,473.493 496.323,479.196 481.829,484.926 C 478.710,486.159 475.413,487.991 474.503,488.997 C 473.593,490.003 467.327,503.126 460.579,518.162 C 447.045,548.315 443.542,555.547 442.013,556.492 C 441.449,556.840 439.416,556.647 437.494,556.063 C 436.329,555.709 435.165,555.354 434,555 C 431.667,553.667 429.333,552.333 427,551 Z" fill="#0F3650" stroke="none"/><path id="38" d="M 556.294,430.250 C 558.279,419.210 558.368,419 561.004,419 C 562.482,419 564.413,418.200 565.298,417.223 C 568.454,413.736 572.286,403.596 575.810,389.407 C 577.003,384.605 578.195,379.802 579.388,375 C 586.990,375 594.592,375 602.194,375 C 619.780,375 624.997,375.286 624.986,376.250 C 624.978,376.938 623.451,386.500 621.593,397.500 C 619.735,408.500 618.418,417.837 618.666,418.250 C 618.914,418.663 620.477,419 622.138,419 C 624.900,419 625.112,419.236 624.609,421.750 C 624.307,423.263 623.574,428.325 622.981,433 C 621.355,445.828 622.023,445 613.290,445 C 610.765,445 608.240,445 605.715,445 C 605.924,443 606.133,441 606.342,439 C 606.551,437 606.760,435 606.969,433 C 601.147,433 595.326,433 589.504,433 C 569.804,433 572.075,432 570.204,441.500 C 569.941,442.833 569.679,444.167 569.416,445.500 C 566.847,445.597 564.277,445.695 561.708,445.792 C 552.659,446.135 553.173,447.610 556.294,430.250 ZM 586.106,411 C 585.186,413.500 584.266,416 583.346,418.500 C 586.271,418.596 589.196,418.691 592.121,418.787 C 595.046,418.883 597.971,418.978 600.896,419.074 C 601.116,417.812 601.335,416.549 601.555,415.287 C 601.917,413.204 603.064,407 604.104,401.500 C 605.144,396 605.995,390.938 605.997,390.250 C 605.999,389.372 603.972,389 599.183,389 C 596.911,389 594.638,389 592.366,389 C 591.783,391.417 591.199,393.833 590.616,396.250 C 589.654,400.237 587.624,406.875 586.106,411 Z" fill="#0F3650" stroke="none"/><path id="38" d="M 732.076,422 C 733.097,416.775 734.909,407.212 736.104,400.750 C 736.828,396.833 737.554,392.917 738.278,389 C 740.898,389 743.519,389 746.139,389 C 750.463,389 753.994,389.112 753.988,389.250 C 753.982,389.388 752.862,395.575 751.500,403 C 748.190,421.043 748.100,420.180 753.238,419.807 C 754.651,419.704 756.064,419.603 757.477,419.500 C 758.330,414.500 759.182,409.500 760.035,404.500 C 760.888,399.500 761.740,394.500 762.593,389.500 C 765.161,389.403 767.728,389.305 770.296,389.208 C 779.385,388.863 778.864,387.250 775.559,405.500 C 774.264,412.650 773.410,418.837 773.661,419.250 C 773.912,419.663 775.862,420 777.992,420 C 782.524,420 782.128,420.877 784.978,404.500 C 787.936,387.503 786.913,389 795.567,389 C 800.834,389 803.007,389.364 803.023,390.250 C 803.035,390.938 801.387,400.837 799.361,412.250 C 798.133,419.167 796.905,426.083 795.677,433 C 784.731,433 773.785,433 762.839,433 C 744.778,433 730.050,432.663 730.110,432.250 C 730.170,431.837 731.055,427.225 732.076,422 Z" fill="#0F3650" stroke="none"/><path id="38" d="M 681.871,402.478 C 683.995,397.802 688.874,392.634 693.348,390.320 C 697.486,388.180 708.711,387.420 713.384,388.962 C 721.873,391.764 726.940,399.326 726.978,409.250 C 726.985,411.167 726.993,413.083 727,415 C 721.833,415 716.667,415 711.500,415 C 699.758,415 696.003,415.303 696.015,416.250 C 696.075,421.185 704.394,423.608 710.444,420.453 C 713.343,418.941 713.449,418.979 717.444,423.017 C 718.796,424.384 720.148,425.751 721.500,427.118 C 720.547,427.890 719.594,428.661 718.641,429.433 C 713.292,433.765 703.066,435.257 694.679,432.928 C 690.023,431.635 683.178,425.655 681.347,421.282 C 679.427,416.695 679.689,407.281 681.871,402.478 ZM 698.205,402.750 C 697.304,403.667 696.401,404.583 695.500,405.500 C 698.417,405.596 701.333,405.693 704.250,405.789 C 709.173,405.952 713,405.672 713,405.150 C 713,403.422 709.512,400.121 707.500,399.945 C 702.817,399.535 700.755,400.157 698.205,402.750 Z" fill="#0F3650" stroke="none"/><path id="38" d="M 809.583,409.500 C 811.458,399.600 813.204,390.938 813.464,390.250 C 813.785,389.401 816.378,389 821.548,389 C 824.085,389 826.622,389 829.159,389 C 828.977,389.917 828.796,390.833 828.614,391.750 C 828.314,393.263 827.778,396.188 827.423,398.250 C 827.208,399.500 826.992,400.750 826.777,402 C 828.525,402 830.275,402 832.023,402 C 839.173,402 844.361,403.724 847.700,407.209 C 850.149,409.766 850.500,410.905 850.500,416.316 C 850.500,421.243 850.012,423.185 848.099,425.867 C 843.852,431.821 839.656,432.953 821.750,432.978 C 816.500,432.985 811.250,432.993 806,433 C 806.029,432.083 806.058,431.167 806.087,430.250 C 806.135,428.737 807.708,419.400 809.583,409.500 ZM 824.667,413.667 C 824.300,414.034 824,416.059 824,418.167 C 824,421.895 824.098,422 827.566,422 C 829.527,422 832.002,421.534 833.066,420.965 C 835.228,419.808 835.637,416.037 833.800,414.200 C 832.530,412.930 825.797,412.537 824.667,413.667 Z" fill="#0F3650" stroke="none"/><path id="38" d="M 631.263,413.898 C 634.480,409.069 639.389,407.017 649.417,406.309 C 658.679,405.655 660.154,404.458 655.474,401.391 C 653.004,399.772 648.533,399.843 642.258,401.601 C 640.339,402.138 639.743,401.599 638.133,397.865 C 635.837,392.541 636.459,391.535 643.301,389.503 C 653.773,386.393 664.039,388.002 668.876,393.511 C 674.002,399.350 674.505,403.396 671.976,418.431 C 670.767,425.619 669.576,431.837 669.330,432.250 C 669.084,432.663 665.759,433 661.941,433 C 655.702,433 655,432.801 655,431.030 C 655,429.162 654.812,429.188 651.360,431.530 C 644.791,435.988 633.633,434.058 630.456,427.915 C 628.294,423.735 628.633,417.846 631.263,413.898 ZM 645.533,416.972 C 642.213,419.727 644.443,424 649.200,424 C 651.876,424 656,421.018 656,419.082 C 656,418.577 656.298,417.387 656.662,416.439 C 657.249,414.909 656.746,414.770 652.195,415.207 C 649.374,415.478 646.376,416.272 645.533,416.972 Z" fill="#0F3650" stroke="none"/><path id="38" d="M 477.326,424.977 C 478.031,423.040 483.759,412.531 490.054,401.624 C 503.706,377.972 505.328,376.576 514.006,381.003 C 518.529,383.311 523,389.291 523,393.034 C 523,396.591 502.285,430.214 496.075,436.738 C 491.875,441.150 484.194,440.915 479.746,436.238 C 476.427,432.748 475.711,429.415 477.326,424.977 Z" fill="#0F3650" stroke="none"/><path id="38" d="M 435.773,365.955 C 442.741,352.018 445.185,348.047 447.898,346.250 C 454.202,342.076 462.505,343.786 467.317,350.249 C 471.957,356.481 471.767,357.570 463.124,374.242 C 453.151,393.481 451.709,395.986 450.605,395.994 C 449.804,396 431.323,386.263 428.273,384.229 C 427.375,383.630 429.386,378.730 435.773,365.955 Z" fill="#0F3650" stroke="none"/><path id="38" d="M 458.081,393.500 C 459.159,391.850 463.143,384.650 466.935,377.500 C 475.114,362.079 477.154,359.866 483.717,359.301 C 489.394,358.812 493.915,361.173 497.005,366.241 C 500.403,371.814 499.683,374.352 489.607,392.283 C 484.441,401.477 479.955,409.675 479.638,410.500 C 479.321,411.325 478.486,411.972 477.781,411.938 C 475.540,411.829 456.508,399.406 456.310,397.923 C 456.206,397.140 457.003,395.150 458.081,393.500 Z" fill="#0F3650" stroke="none"/><path id="38" d="M 500.165,439.500 C 500.818,438.400 506.456,429.737 512.693,420.250 C 525.192,401.238 525.738,400.821 532.561,405.038 C 536.563,407.512 540.470,414.992 539.590,418.498 C 538.694,422.067 520.591,449.472 517.870,451.378 C 516.522,452.322 513.566,453 510.793,453 C 506.997,453 505.419,452.442 503.013,450.250 C 499.620,447.159 498.385,442.498 500.165,439.500 Z" fill="#0F3650" stroke="none"/></g><g data-color-group="#a4c64e" id="lime"><path id="11" d="M 333.537,388.955 C 335.472,386.639 338.215,383.832 339.632,382.718 C 342.073,380.798 342.354,380.778 345.008,382.346 C 349.083,384.753 350.369,384.440 354.301,380.088 C 359.615,374.207 360.389,372.355 358.970,368.929 C 358.312,367.340 358.043,365.017 358.373,363.769 C 359.187,360.690 378.637,340.701 383,338.460 C 387.974,335.905 399.991,335.369 407.750,337.357 C 413.961,338.948 426,344.447 426,345.692 C 426,346.057 419.107,353.362 410.682,361.927 C 402.257,370.492 392.399,380.631 388.775,384.458 C 386.579,386.777 384.383,389.096 382.187,391.415 C 380.998,390.775 379.809,390.135 378.620,389.495 C 377.431,388.855 376.243,388.214 375.054,387.574 C 374.015,388.562 372.975,389.549 371.936,390.537 C 370.221,392.167 367.939,394.722 366.865,396.215 C 365.035,398.760 365.013,399.125 366.511,402.021 C 367.044,403.051 367.576,404.081 368.109,405.111 C 366.366,407.259 364.623,409.407 362.880,411.555 C 360.004,415.100 356.890,418 355.960,418 C 354.213,418 332.682,398.143 330.979,394.960 C 330.229,393.558 330.786,392.247 333.537,388.955 Z" fill="#A4C64E" stroke="none"/><path id="11" d="M 497.630,329 C 502.818,321.025 508.675,311.664 510.646,308.198 C 512.617,304.732 514.471,302.138 514.765,302.432 C 515.312,302.979 498.296,347.822 496.969,349.331 C 495.988,350.446 487.974,346.289 488.099,344.730 C 488.153,344.054 492.442,336.975 497.630,329 Z" fill="#A4C64E" stroke="none"/><path id="11" d="M 517.250,353.650 C 518.487,352.781 526.475,345.306 535,337.039 C 543.525,328.772 550.627,322.006 550.782,322.004 C 551.505,321.995 547.508,328.015 535.649,344.802 C 527.614,356.176 522.367,362.738 521.649,362.311 C 518.061,360.180 515,357.471 515,356.427 C 515,355.769 516.013,354.519 517.250,353.650 Z" fill="#A4C64E" stroke="none"/><path id="11" d="M 531.250,370.494 C 531.938,370.250 540.600,367.067 550.500,363.419 C 560.400,359.771 569.625,356.575 571,356.316 C 573.381,355.868 573.357,355.938 570.500,357.797 C 562.570,362.956 534.954,380 534.526,380 C 534.010,380 530,372.475 530,371.508 C 530,371.194 530.562,370.738 531.250,370.494 Z" fill="#A4C64E" stroke="none"/><path id="11" d="M 336,473.685 C 340.589,471.774 380.412,461.944 381.647,462.418 C 382.694,462.820 383.028,464.205 382.808,467.240 C 382.705,468.659 382.603,470.079 382.500,471.498 C 375,472.074 367.500,472.651 360,473.227 C 347.625,474.178 336.825,474.810 336,474.632 C 335.500,474.524 335,474.418 334.500,474.310 C 335,474.102 335.500,473.893 336,473.685 Z" fill="#A4C64E" stroke="none"/><path id="11" d="M 423.881,295.561 C 425.055,296.653 442,335.434 442,337.028 C 442,338.020 434.260,340.593 433.516,339.849 C 433.257,339.590 431.054,330.630 428.621,319.939 C 426.188,309.248 423.869,299.150 423.469,297.500 C 422.930,295.277 423.036,294.775 423.881,295.561 Z" fill="#A4C64E" stroke="none"/><path id="11" d="M 486.773,532.161 C 488.657,531.196 494,529.785 494,530.252 C 494,530.412 496.261,540.383 499.025,552.412 C 501.789,564.441 503.852,574.481 503.609,574.724 C 503.150,575.183 502.069,572.909 493.990,554.492 C 485.187,534.423 484.785,533.179 486.773,532.161 Z" fill="#A4C64E" stroke="none"/><path id="11" d="M 463.893,538 C 466.749,538 468.252,538.491 468.662,539.560 C 469.411,541.511 466.042,582.209 465.042,583.295 C 464.412,583.979 462.916,571.656 460.364,544.750 C 460.151,542.500 459.937,540.250 459.724,538 C 461.114,538 462.503,538 463.893,538 Z" fill="#A4C64E" stroke="none"/><path id="11" d="M 336.158,441.570 C 345.779,440.284 374.024,437 375.462,437 C 376.585,437 377,438.062 377,440.941 C 377,443.109 376.620,445.117 376.154,445.405 C 375.209,445.989 332.943,443.277 332.254,442.588 C 332.013,442.347 333.770,441.889 336.158,441.570 Z" fill="#A4C64E" stroke="none"/><path id="11" d="M 387.907,558.736 C 392.154,550.066 396.049,542.587 396.564,542.116 C 397.647,541.126 404,543.536 404,544.937 C 404,545.449 401.390,549.161 398.200,553.185 C 395.010,557.208 389.739,564.041 386.489,568.369 C 383.238,572.697 380.490,575.847 380.382,575.369 C 380.274,574.891 383.660,567.406 387.907,558.736 Z" fill="#A4C64E" stroke="none"/><path id="11" d="M 359.500,500.113 C 369.184,495.101 377.485,491 377.947,491 C 379.977,491 380.794,498.392 378.894,499.566 C 377.332,500.531 342.663,509.997 342.240,509.574 C 342.048,509.382 349.816,505.125 359.500,500.113 Z" fill="#A4C64E" stroke="none"/><path id="11" d="M 464.748,316.792 C 466.717,309.253 468.704,303.317 469.164,303.601 C 469.624,303.885 470,311.291 470,320.059 C 470,335.928 469.990,336 467.750,335.986 C 463.245,335.959 460.997,334.828 461.084,332.633 C 461.130,331.460 462.779,324.331 464.748,316.792 Z" fill="#A4C64E" stroke="none"/><path id="11" d="M 434,555 C 424.312,580.672 421.383,587.309 421.240,586.312 C 421.097,585.315 422.334,576.963 423.990,567.750 C 424.993,562.167 425.997,556.583 427,551 C 429.333,552.333 431.667,553.667 434,555 Z" fill="#A4C64E" stroke="none"/><path id="11" d="M 360.099,531.538 C 363.811,527.952 367.523,524.366 371.235,520.780 C 372.076,521.621 372.917,522.462 373.758,523.303 C 375.146,524.691 376.037,526.461 375.740,527.236 C 375.174,528.711 350.097,543.431 349.377,542.711 C 349.149,542.483 353.974,537.455 360.099,531.538 Z" fill="#A4C64E" stroke="none"/></g><g data-color-group="#e45736" id="red"><path id="42" d="M 545.669,492 C 548.103,479.075 550.555,466.138 551.118,463.250 C 551.459,461.500 551.801,459.750 552.142,458 C 554.618,458 557.095,458 559.571,458 C 565.307,458 567,458.322 567,459.414 C 567,460.542 567.999,460.405 571.939,458.741 C 576.405,456.854 577.405,456.772 582.375,457.884 C 586.651,458.841 588.642,459.968 591.344,462.959 C 599.647,472.150 597.821,489.861 587.674,498.547 C 580.745,504.478 573.134,505.508 565.649,501.528 C 563.092,500.168 560.952,499.156 560.893,499.278 C 560.834,499.400 560.033,503.550 559.113,508.500 C 558.556,511.500 557.998,514.500 557.441,517.500 C 554.701,517.597 551.961,517.693 549.221,517.790 C 542.976,518.011 541.029,517.770 541.122,516.790 C 541.189,516.080 543.235,504.925 545.669,492 ZM 577.961,473.189 C 575.953,471.033 571.856,470.351 568.545,471.621 C 564.119,473.320 562.397,484.397 566,488 C 567.969,489.969 572.280,490.597 575.455,489.379 C 579.894,487.675 581.542,477.033 577.961,473.189 Z" fill="#E45736" stroke="none"/><path id="42" d="M 655.899,477.500 C 657.119,471.167 658.339,464.833 659.559,458.500 C 662.281,458.403 665.003,458.307 667.725,458.210 C 670.447,458.114 673.170,458.018 675.892,457.921 C 676.602,460.351 677.312,462.780 678.022,465.210 C 679.193,469.219 680.639,474.188 681.234,476.250 C 681.829,478.312 682.583,479.983 682.908,479.962 C 683.233,479.941 686.650,475.103 690.500,469.212 C 692.833,465.642 695.167,462.070 697.500,458.500 C 700.250,458.403 703,458.307 705.750,458.210 C 713.294,457.944 714,458.082 714,459.821 C 714,462.698 707.039,501.295 706.406,501.928 C 705.893,502.441 692.813,502.102 692.241,501.561 C 692.099,501.426 692.686,497.604 693.547,493.067 C 694.408,488.530 694.969,484.078 694.795,483.173 C 694.606,482.192 692.255,485.156 688.972,490.514 C 683.814,498.931 683.235,499.520 679.831,499.805 C 676.293,500.101 676.156,499.982 674.654,495.305 C 673.805,492.663 672.614,488.574 672.008,486.220 C 671.402,483.866 670.544,482.164 670.100,482.438 C 669.656,482.712 668.708,486.438 667.993,490.718 C 665.895,503.270 666.104,503 658.525,503 C 656.350,503 654.175,503 652,503 C 652.040,501.917 652.080,500.833 652.120,499.750 C 652.186,497.962 653.886,487.950 655.899,477.500 Z" fill="#E45736" stroke="none"/><path id="42" d="M 773.062,479.500 C 775.202,467.950 776.963,458.388 776.976,458.250 C 776.989,458.112 780.653,458 785.117,458 C 793.053,458 793.219,458.050 792.609,460.250 C 792.266,461.487 791.697,465.111 791.345,468.302 C 791.132,470.236 790.917,472.169 790.704,474.103 C 792.837,474.002 794.969,473.903 797.102,473.802 C 799.235,473.702 801.367,473.601 803.500,473.500 C 803.951,470.917 804.403,468.333 804.854,465.750 C 805.305,463.167 805.757,460.583 806.208,458 C 808.840,458 811.472,458 814.104,458 C 820.970,458 821.996,458.228 821.968,459.750 C 821.950,460.712 820.246,470.725 818.181,482 C 816.929,488.833 815.677,495.667 814.425,502.500 C 811.807,502.598 809.188,502.697 806.570,502.795 C 803.952,502.893 801.333,502.991 798.715,503.089 C 798.943,500.867 799.170,498.646 799.398,496.424 C 799.774,492.758 800.175,489.250 800.290,488.629 C 800.423,487.913 798.223,487.391 794.281,487.203 C 787.296,486.870 788.181,485.797 785.960,497.291 C 785.587,499.221 785.214,501.151 784.841,503.081 C 782.311,502.984 779.781,502.888 777.251,502.791 C 773.076,502.631 769.550,502.050 769.416,501.500 C 769.282,500.950 770.922,491.050 773.062,479.500 Z" fill="#E45736" stroke="none"/><path id="42" d="M 717.686,477.500 C 719.979,467.396 725.712,461.012 734.890,458.344 C 752.883,453.113 768.983,467.093 765.075,484.554 C 762.758,494.908 755.717,501.378 744.732,503.245 C 732.348,505.350 721.706,499.484 718.534,488.804 C 717.004,483.651 716.827,481.286 717.686,477.500 ZM 748.805,474.500 C 747.188,471.648 745.972,471.032 741.924,471.015 C 737.107,470.994 733.932,474.431 733.260,480.390 C 732.805,484.424 733.075,485.229 735.798,487.952 C 739.220,491.374 740.836,491.653 744.941,489.530 C 749.325,487.263 751.421,479.113 748.805,474.500 Z" fill="#E45736" stroke="none"/><path id="42" d="M 602.422,474.713 C 607.692,455.115 636.937,450.592 645.781,468.008 C 647.552,471.495 647.999,473.842 647.781,478.500 C 647.687,480.500 647.594,482.500 647.500,484.500 C 642.417,484.592 637.333,484.684 632.250,484.776 C 623.211,484.940 617,485.449 617,486.026 C 617,486.562 617.900,487.900 619,489 C 621.425,491.425 629.586,491.764 632.559,489.563 C 634.327,488.255 634.835,488.451 638.250,491.766 C 640.312,493.768 642,495.918 642,496.544 C 642,497.170 639.638,498.974 636.750,500.553 C 632.367,502.950 630.344,503.420 624.500,503.404 C 613.433,503.373 605.222,497.854 602.473,488.596 C 600.728,482.719 600.721,481.038 602.422,474.713 ZM 633.250,473 C 631.809,468.499 623.790,467.465 620.174,471.314 C 616.477,475.250 617.320,476 625.441,476 C 633.066,476 634.085,475.608 633.250,473 Z" fill="#E45736" stroke="none"/><path id="42" d="M 826.878,461.500 C 827.092,460.500 827.304,459.500 827.518,458.500 C 834.470,458.410 841.422,458.319 848.374,458.229 C 855.326,458.139 862.278,458.049 869.230,457.959 C 869.014,459.216 868.797,460.472 868.581,461.729 C 866.846,471.806 867.552,471 860.466,471 C 858.341,471 856.216,471 854.091,471 C 853.892,472.083 853.692,473.167 853.493,474.250 C 853.164,476.038 851.902,483.125 850.687,490 C 849.951,494.167 849.214,498.333 848.478,502.500 C 845.898,502.597 843.319,502.695 840.739,502.792 C 831.485,503.141 831.873,504.411 835.489,485.628 C 836.852,478.548 837.723,472.361 837.425,471.878 C 837.127,471.395 834.434,471 831.441,471 C 829.627,471 827.814,471 826,471 C 826.039,469.917 826.079,468.833 826.118,467.750 C 826.183,465.962 826.526,463.150 826.878,461.500 Z" fill="#E45736" stroke="none"/><path id="42" d="M 875.414,457.510 C 876.338,442.201 876.744,439.475 878.134,439.210 C 879.553,438.939 885.935,440.349 900.250,444.096 C 903.207,444.870 904,445.562 904,447.370 C 904,448.631 900.287,455.310 895.750,462.214 C 891.213,469.118 886.720,476.191 885.768,477.932 C 884.172,480.849 883.741,481.049 880.268,480.471 C 874.580,479.525 873.986,479.214 874.164,477.281 C 874.254,476.301 874.817,467.404 875.414,457.510 Z" fill="#E45736" stroke="none"/><path id="42" d="M 869.252,487.494 C 870.750,485.752 872.877,484.693 875.610,484.326 C 879.144,483.852 880.168,484.178 882.951,486.665 C 890.563,493.467 884.430,505.429 874.304,503.529 C 867.499,502.252 864.566,492.942 869.252,487.494 Z" fill="#E45736" stroke="none"/></g><g data-color-group="#45b9bb" id="cyan"><path id="9" d="M 488.973,488.126 C 491.158,487.471 495.656,485.066 498.967,482.781 C 504.517,478.951 505.482,478.631 511.312,478.686 C 524.990,478.815 534.968,487.866 534.994,500.168 C 535.001,503.446 534.083,506 532.898,506 C 532.410,506 529.218,503.750 525.805,501 C 522.304,498.179 518.576,496 517.250,496 C 513.061,496 509.340,498.748 507.115,503.480 C 505.154,507.652 505.096,508.286 506.448,510.900 C 507.261,512.472 510.193,516.238 512.963,519.269 C 515.733,522.300 518,525.109 518,525.510 C 518,525.911 515.352,526.049 512.116,525.815 C 504.418,525.258 497.672,521.729 493.642,516.152 C 490.828,512.257 490.464,510.939 490.151,503.484 C 489.847,496.241 489.490,494.870 487.401,492.907 C 486.081,491.667 485,490.351 485,489.984 C 485,489.617 486.788,488.781 488.973,488.126 Z" fill="#45B9BB" stroke="none"/><path id="9" d="M 396.603,383.757 C 400.785,379.215 404.525,375.500 404.913,375.500 C 405.301,375.500 408.273,377.828 411.517,380.674 C 413.483,382.399 415.450,384.123 417.416,385.848 C 415.907,387.462 414.397,389.075 412.888,390.689 C 410.398,393.351 407.111,397.661 405.585,400.265 C 404.059,402.869 402.290,404.991 401.655,404.980 C 400.269,404.956 389,394.219 389,392.923 C 389,392.423 392.421,388.298 396.603,383.757 Z" fill="#45B9BB" stroke="none"/></g><g data-color-group="#f4b223" id="yellow"><path id="43" d="M 879.464,423.906 C 881.871,417.368 884.193,413.676 889.282,408.295 C 893.961,403.348 894.438,403.086 896.074,404.567 C 897.436,405.800 898.290,405.916 899.851,405.080 C 903.222,403.276 903.776,403.810 903.262,408.370 C 902.656,413.746 904.337,415.183 906.450,411.096 C 909.194,405.789 909.905,406.591 910.101,415.218 C 910.438,430.041 910.301,431.532 908.144,436.407 C 905.703,441.925 907.674,441.880 889.250,436.846 C 885.500,435.821 881.750,434.797 878,433.772 C 878.023,432.727 878.047,431.681 878.070,430.636 C 878.109,428.911 878.736,425.883 879.464,423.906 Z" fill="#F4B223" stroke="none"/></g><g data-color-group="#fdfdfd" id="white"><path id="39" d="M 586.106,411 C 587.624,406.875 589.654,400.237 590.616,396.250 C 591.199,393.833 591.783,391.417 592.366,389 C 594.638,389 596.911,389 599.183,389 C 603.972,389 605.999,389.372 605.997,390.250 C 605.995,390.938 605.144,396 604.104,401.500 C 603.064,407 601.917,413.204 601.555,415.287 C 601.335,416.549 601.116,417.812 600.896,419.074 C 597.971,418.978 595.046,418.883 592.121,418.787 C 589.196,418.691 586.271,418.596 583.346,418.500 C 584.266,416 585.186,413.500 586.106,411 Z" fill="#FDFDFD" stroke="none" style="display:none"/><path id="39" d="M 748.805,474.500 C 751.421,479.113 749.325,487.263 744.941,489.530 C 740.836,491.653 739.220,491.374 735.798,487.952 C 733.075,485.229 732.805,484.424 733.260,480.390 C 733.932,474.431 737.107,470.994 741.924,471.015 C 745.972,471.032 747.188,471.648 748.805,474.500 Z" fill="#FDFDFD" stroke="none" style="display:none"/><path id="39" d="M 577.961,473.189 C 581.542,477.033 579.894,487.675 575.455,489.379 C 572.280,490.597 567.969,489.969 566,488 C 562.397,484.397 564.119,473.320 568.545,471.621 C 571.856,470.351 575.953,471.033 577.961,473.189 Z" fill="#FDFDFD" stroke="none" style="display:none"/><path id="39" d="M 824.667,413.667 C 825.797,412.537 832.530,412.930 833.800,414.200 C 835.637,416.037 835.228,419.808 833.066,420.965 C 832.002,421.534 829.527,422 827.566,422 C 824.098,422 824,421.895 824,418.167 C 824,416.059 824.300,414.034 824.667,413.667 Z" fill="#FDFDFD" stroke="none" style="display:none"/><path id="39" d="M 698.205,402.750 C 700.755,400.157 702.817,399.535 707.500,399.945 C 709.512,400.121 713,403.422 713,405.150 C 713,405.672 709.173,405.952 704.250,405.789 C 701.333,405.693 698.417,405.596 695.500,405.500 C 696.401,404.583 697.304,403.667 698.205,402.750 Z" fill="#FDFDFD" stroke="none" style="display:none"/><path id="39" d="M 645.533,416.972 C 646.376,416.272 649.374,415.478 652.195,415.207 C 656.746,414.770 657.249,414.909 656.662,416.439 C 656.298,417.387 656,418.577 656,419.082 C 656,421.018 651.876,424 649.200,424 C 644.443,424 642.213,419.727 645.533,416.972 Z" fill="#FDFDFD" stroke="none" style="display:none"/><path id="39" d="M 633.250,473 C 634.085,475.608 633.066,476 625.441,476 C 617.320,476 616.477,475.250 620.174,471.314 C 623.790,467.465 631.809,468.499 633.250,473 Z" fill="#FDFDFD" stroke="none" style="display:none"/></g></svg>